<?xml version="1.0" encoding="UTF-8" standalone="no"?>
<svg
   xmlns:dc="http://purl.org/dc/elements/1.1/"
   xmlns:cc="http://creativecommons.org/ns#"
   xmlns:rdf="http://www.w3.org/1999/02/22-rdf-syntax-ns#"
   xmlns:svg="http://www.w3.org/2000/svg"
   xmlns="http://www.w3.org/2000/svg"
   xmlns:sodipodi="http://sodipodi.sourceforge.net/DTD/sodipodi-0.dtd"
   xmlns:inkscape="http://www.inkscape.org/namespaces/inkscape"
   version="1.1"
   width="3.37312cm"
   height="1.70688cm"
   viewBox="0 0 13280 6720 "
   id="svg2"
   inkscape:version="0.91 r13725"
   sodipodi:docname="TritLedSmd-brd.svg"
   inkscape:export-filename="/home/alex/Projects/Trit/TritLedSmd/TritLedSmd/TritLedSmd-brd.png"
   inkscape:export-xdpi="600"
   inkscape:export-ydpi="600">
  <metadata
     id="metadata564">
    <rdf:RDF>
      <cc:Work
         rdf:about="">
        <dc:format>image/svg+xml</dc:format>
        <dc:type
           rdf:resource="http://purl.org/dc/dcmitype/StillImage" />
      </cc:Work>
    </rdf:RDF>
  </metadata>
  <defs
     id="defs562" />
  <sodipodi:namedview
     pagecolor="#ffffff"
     bordercolor="#666666"
     borderopacity="1"
     objecttolerance="10"
     gridtolerance="10"
     guidetolerance="10"
     inkscape:pageopacity="0"
     inkscape:pageshadow="2"
     inkscape:window-width="1280"
     inkscape:window-height="1000"
     id="namedview560"
     showgrid="false"
     inkscape:zoom="2.8949129"
     inkscape:cx="59.760001"
     inkscape:cy="30.24"
     inkscape:window-x="0"
     inkscape:window-y="24"
     inkscape:window-maximized="1"
     inkscape:current-layer="svg2" />
  <title
     id="title4">SVG Picture created as TritLedSmd-brd.svg date 2015/04/26 17:49:04 </title>
  <desc
     id="desc6">Picture generated by PCBNEW </desc>
  <g
     style="fill:#000000; fill-opacity:1;stroke:#000000; stroke-opacity:1; stroke-linecap:round; stroke-linejoin:round; "
     transform="translate(0 0) scale(1 1)"
     id="g8" />
  <g
     style="fill:#840000; fill-opacity:0.0;  stroke:#840000; stroke-width:39.3701; stroke-opacity:1;  stroke-linecap:round; stroke-linejoin:round;"
     id="g10" />
  <g
     style="fill:#840000; fill-opacity:1.0;  stroke:#840000; stroke-width:39.3701; stroke-opacity:1;  stroke-linecap:round; stroke-linejoin:round;"
     id="g12">
    <circle
       cx="3248.78"
       cy="3942.91"
       r="310.315"
       id="circle14" />
    <circle
       cx="3248.78"
       cy="4942.91"
       r="310.315"
       id="circle16" />
    <circle
       cx="3248.78"
       cy="1192.91"
       r="310.315"
       id="circle18" />
    <circle
       cx="3248.78"
       cy="2192.91"
       r="310.315"
       id="circle20" />
    <polyline
       style="fill-rule:evenodd;"
       points="8578,6363 8578,5522 9419,5522 9419,6363 8578,6363 "
       id="polyline22" />
    <polyline
       style="fill-rule:evenodd;"
       points="8618,1323 8618,562 9379,562 9379,1323 8618,1323 "
       id="polyline24" />
  </g>
  <g
     style="fill:#840000; fill-opacity:1.0;  stroke:#840000; stroke-width:800; stroke-opacity:1;  stroke-linecap:round; stroke-linejoin:round;"
     id="g26" />
  <g
     style="fill:#840000; fill-opacity:0.0;  stroke:#840000; stroke-width:800; stroke-opacity:1;  stroke-linecap:round; stroke-linejoin:round;"
     id="g28">
    <path
       d="M8998 1942 L8998 1942 "
       id="path30" />
  </g>
  <g
     style="fill:#C2C2C2; fill-opacity:0.0;  stroke:#C2C2C2; stroke-width:39.3701; stroke-opacity:1;  stroke-linecap:round; stroke-linejoin:round;"
     id="g32" />
  <g
     style="fill:#C2C2C2; fill-opacity:1.0;  stroke:#C2C2C2; stroke-width:39.3701; stroke-opacity:1;  stroke-linecap:round; stroke-linejoin:round;"
     id="g34">
    <circle
       cx="5498.78"
       cy="5442.91"
       r="216.535"
       id="circle36" />
    <circle
       cx="6998.78"
       cy="2192.91"
       r="216.535"
       id="circle38" />
  </g>
  <g
     style="fill:#008400; fill-opacity:1.0;  stroke:#008400; stroke-width:236.22; stroke-opacity:1;  stroke-linecap:round; stroke-linejoin:round;"
     id="g40" />
  <g
     style="fill:#008400; fill-opacity:0.0;  stroke:#008400; stroke-width:236.22; stroke-opacity:1;  stroke-linecap:round; stroke-linejoin:round;"
     id="g42">
    <path
       d="M5498 5442 L6998 5442 "
       id="path44" />
    <path
       d="M6998 5442 L6998 2192 "
       id="path46" />
  </g>
  <g
     style="fill:#FFFFFF; fill-opacity:0.0;  stroke:#FFFFFF; stroke-width:39.3701; stroke-opacity:1;  stroke-linecap:round; stroke-linejoin:round;"
     id="g48" />
  <g
     style="fill:#FFFFFF; fill-opacity:1.0;  stroke:#FFFFFF; stroke-width:39.3701; stroke-opacity:1;  stroke-linecap:round; stroke-linejoin:round;"
     id="g50">
    <circle
       cx="5498.78"
       cy="5442.91"
       r="59.0551"
       id="circle52" />
    <circle
       cx="6998.78"
       cy="2192.91"
       r="59.0551"
       id="circle54" />
    <circle
       cx="3248.78"
       cy="3942.91"
       r="140.315"
       id="circle56" />
    <circle
       cx="3248.78"
       cy="4942.91"
       r="140.315"
       id="circle58" />
    <circle
       cx="3248.78"
       cy="1192.91"
       r="140.315"
       id="circle60" />
    <circle
       cx="3248.78"
       cy="2192.91"
       r="140.315"
       id="circle62" />
    <circle
       cx="8998.78"
       cy="5942.91"
       r="180.315"
       id="circle64" />
    <circle
       cx="8998.78"
       cy="942.913"
       r="180.315"
       id="circle66" />
    <circle
       cx="8998.78"
       cy="1942.91"
       r="180.315"
       id="circle68" />
  </g>
  <g
     style="fill:#840000; fill-opacity:1.0;  stroke:#840000; stroke-width:39.3701; stroke-opacity:1;  stroke-linecap:round; stroke-linejoin:round;"
     id="g70">
    <circle
       cx="3248.78"
       cy="3942.91"
       r="310.315"
       id="circle72" />
    <circle
       cx="3248.78"
       cy="4942.91"
       r="310.315"
       id="circle74" />
    <circle
       cx="3248.78"
       cy="1192.91"
       r="310.315"
       id="circle76" />
    <circle
       cx="3248.78"
       cy="2192.91"
       r="310.315"
       id="circle78" />
    <polyline
       style="fill-rule:evenodd;"
       points="8578,6363 8578,5522 9419,5522 9419,6363 8578,6363 "
       id="polyline80" />
  </g>
  <g
     style="fill:#840000; fill-opacity:1.0;  stroke:#840000; stroke-width:240; stroke-opacity:1;  stroke-linecap:round; stroke-linejoin:round;"
     id="g82" />
  <g
     style="fill:#840000; fill-opacity:0.0;  stroke:#840000; stroke-width:240; stroke-opacity:1;  stroke-linecap:round; stroke-linejoin:round;"
     id="g84">
    <path
       d="M4998 4122 L4998 4462 "
       id="path86" />
    <path
       d="M5498 4122 L5498 4462 "
       id="path88" />
    <path
       d="M5998 4122 L5998 4462 "
       id="path90" />
    <path
       d="M6498 4122 L6498 4462 "
       id="path92" />
    <path
       d="M6498 1922 L6498 2262 "
       id="path94" />
    <path
       d="M5998 1922 L5998 2262 "
       id="path96" />
    <path
       d="M5498 1922 L5498 2262 "
       id="path98" />
    <path
       d="M4998 1922 L4998 2262 "
       id="path100" />
  </g>
  <g
     style="fill:#840000; fill-opacity:0.0;  stroke:#840000; stroke-width:39.3701; stroke-opacity:1;  stroke-linecap:round; stroke-linejoin:round;"
     id="g102" />
  <g
     style="fill:#840000; fill-opacity:1.0;  stroke:#840000; stroke-width:39.3701; stroke-opacity:1;  stroke-linecap:round; stroke-linejoin:round;"
     id="g104">
    <polyline
       style="fill-rule:evenodd;"
       points="8618,1323 8618,562 9379,562 9379,1323 8618,1323 "
       id="polyline106" />
  </g>
  <g
     style="fill:#840000; fill-opacity:1.0;  stroke:#840000; stroke-width:800; stroke-opacity:1;  stroke-linecap:round; stroke-linejoin:round;"
     id="g108" />
  <g
     style="fill:#840000; fill-opacity:0.0;  stroke:#840000; stroke-width:800; stroke-opacity:1;  stroke-linecap:round; stroke-linejoin:round;"
     id="g110">
    <path
       d="M8998 1942 L8998 1942 "
       id="path112" />
  </g>
  <g
     style="fill:#840000; fill-opacity:0.0;  stroke:#840000; stroke-width:39.3701; stroke-opacity:1;  stroke-linecap:round; stroke-linejoin:round;"
     id="g114" />
  <g
     style="fill:#840000; fill-opacity:1.0;  stroke:#840000; stroke-width:39.3701; stroke-opacity:1;  stroke-linecap:round; stroke-linejoin:round;"
     id="g116">
    <polyline
       style="fill-rule:evenodd;"
       points="7341,1068 7656,1068 7656,1226 7341,1226 7341,1068 "
       id="polyline118" />
    <polyline
       style="fill-rule:evenodd;"
       points="7341,1659 7656,1659 7656,1816 7341,1816 7341,1659 "
       id="polyline120" />
    <polyline
       style="fill-rule:evenodd;"
       points="3624,6100 3624,5785 3782,5785 3782,6100 3624,6100 "
       id="polyline122" />
    <polyline
       style="fill-rule:evenodd;"
       points="4215,6100 4215,5785 4372,5785 4372,6100 4215,6100 "
       id="polyline124" />
    <polyline
       style="fill-rule:evenodd;"
       points="7341,2568 7656,2568 7656,2726 7341,2726 7341,2568 "
       id="polyline126" />
    <polyline
       style="fill-rule:evenodd;"
       points="7341,3159 7656,3159 7656,3316 7341,3316 7341,3159 "
       id="polyline128" />
    <polyline
       style="fill-rule:evenodd;"
       points="7341,4068 7656,4068 7656,4226 7341,4226 7341,4068 "
       id="polyline130" />
    <polyline
       style="fill-rule:evenodd;"
       points="7341,4659 7656,4659 7656,4816 7341,4816 7341,4659 "
       id="polyline132" />
    <polyline
       style="fill-rule:evenodd;"
       points="3624,3100 3624,2785 3782,2785 3782,3100 3624,3100 "
       id="polyline134" />
    <polyline
       style="fill-rule:evenodd;"
       points="4215,3100 4215,2785 4372,2785 4372,3100 4215,3100 "
       id="polyline136" />
  </g>
  <g
     style="fill:#C2C2C2; fill-opacity:1.0;  stroke:#C2C2C2; stroke-width:39.3701; stroke-opacity:1;  stroke-linecap:round; stroke-linejoin:round;"
     id="g138">
    <circle
       cx="5498.78"
       cy="5442.91"
       r="216.535"
       id="circle140" />
    <circle
       cx="6998.78"
       cy="2192.91"
       r="216.535"
       id="circle142" />
  </g>
  <g
     style="fill:#840000; fill-opacity:1.0;  stroke:#840000; stroke-width:393.701; stroke-opacity:1;  stroke-linecap:round; stroke-linejoin:round;"
     id="g144" />
  <g
     style="fill:#840000; fill-opacity:0.0;  stroke:#840000; stroke-width:393.701; stroke-opacity:1;  stroke-linecap:round; stroke-linejoin:round;"
     id="g146">
    <path
       d="M2498 3192 L3248 3942 "
       id="path148" />
    <path
       d="M3248 1192 L2498 1942 "
       id="path150" />
    <path
       d="M2498 1942 L2498 3192 "
       id="path152" />
    <path
       d="M4998 692 L3248 692 "
       id="path154" />
    <path
       d="M3248 692 L3248 1192 "
       id="path156" />
    <path
       d="M8498 692 L7498 692 "
       id="path158" />
    <path
       d="M8998 942 L8498 942 "
       id="path160" />
    <path
       d="M8498 942 L8498 692 "
       id="path162" />
    <path
       d="M7498 1147 L7498 692 "
       id="path164" />
    <path
       d="M4998 692 L4998 2092 "
       id="path166" />
    <path
       d="M7498 692 L4998 692 "
       id="path168" />
    <path
       d="M3248 5192 L3248 5942 "
       id="path170" />
    <path
       d="M3248 5942 L3703 5942 "
       id="path172" />
    <path
       d="M3703 2942 L3248 2942 "
       id="path174" />
    <path
       d="M3248 2942 L3248 2192 "
       id="path176" />
    <path
       d="M7498 5442 L7998 5442 "
       id="path178" />
    <path
       d="M8498 4942 L8498 1942 "
       id="path180" />
    <path
       d="M8498 1942 L8998 1942 "
       id="path182" />
    <path
       d="M7998 5442 L8498 4942 "
       id="path184" />
    <path
       d="M7498 4738 L7498 5442 "
       id="path186" />
    <path
       d="M6498 5442 L6498 4292 "
       id="path188" />
    <path
       d="M7498 5442 L6498 5442 "
       id="path190" />
  </g>
  <g
     style="fill:#840000; fill-opacity:0.0;  stroke:#840000; stroke-width:236.22; stroke-opacity:1;  stroke-linecap:round; stroke-linejoin:round;"
     id="g192">
    <path
       d="M7498 2647 L7498 2192 "
       id="path194" />
    <path
       d="M7498 2192 L7498 1738 "
       id="path196" />
    <path
       d="M6998 2192 L7498 2192 "
       id="path198" />
    <path
       d="M5498 4292 L5498 5442 "
       id="path200" />
    <path
       d="M7498 3692 L6998 3692 "
       id="path202" />
    <path
       d="M6498 3192 L6498 2092 "
       id="path204" />
    <path
       d="M6998 3692 L6498 3192 "
       id="path206" />
    <path
       d="M6498 2092 L6498 1692 "
       id="path208" />
    <path
       d="M7498 4147 L7498 3692 "
       id="path210" />
    <path
       d="M7498 3692 L7498 3238 "
       id="path212" />
    <path
       d="M4294 5942 L4998 5942 "
       id="path214" />
    <path
       d="M4998 5942 L4998 4292 "
       id="path216" />
    <path
       d="M4294 2942 L5498 2942 "
       id="path218" />
    <path
       d="M5498 2942 L5498 2092 "
       id="path220" />
    <path
       d="M5498 2092 L5498 1692 "
       id="path222" />
  </g>
  <g
     style="fill:#840000; fill-opacity:0.0;  stroke:#840000; stroke-width:393.701; stroke-opacity:1;  stroke-linecap:round; stroke-linejoin:round;"
     id="g224">
    <path
       d="M8998 5942 L5998 5942 "
       id="path226" />
  </g>
  <g
     style="fill:#840000; fill-opacity:0.0;  stroke:#840000; stroke-width:236.22; stroke-opacity:1;  stroke-linecap:round; stroke-linejoin:round;"
     id="g228">
    <path
       d="M5998 5942 L5998 4292 "
       id="path230" />
    <path
       d="M5998 2092 L5998 1692 "
       id="path232" />
    <path
       d="M5998 4292 L5998 2092 "
       id="path234" />
  </g>
  <g
     style="fill:#FFFFFF; fill-opacity:0.0;  stroke:#FFFFFF; stroke-width:39.3701; stroke-opacity:1;  stroke-linecap:round; stroke-linejoin:round;"
     id="g236" />
  <g
     style="fill:#FFFFFF; fill-opacity:1.0;  stroke:#FFFFFF; stroke-width:39.3701; stroke-opacity:1;  stroke-linecap:round; stroke-linejoin:round;"
     id="g238">
    <circle
       cx="5498.78"
       cy="5442.91"
       r="59.0551"
       id="circle240" />
    <circle
       cx="6998.78"
       cy="2192.91"
       r="59.0551"
       id="circle242" />
    <circle
       cx="3248.78"
       cy="3942.91"
       r="140.315"
       id="circle244" />
    <circle
       cx="3248.78"
       cy="4942.91"
       r="140.315"
       id="circle246" />
    <circle
       cx="3248.78"
       cy="1192.91"
       r="140.315"
       id="circle248" />
    <circle
       cx="3248.78"
       cy="2192.91"
       r="140.315"
       id="circle250" />
    <circle
       cx="8998.78"
       cy="5942.91"
       r="180.315"
       id="circle252" />
    <circle
       cx="8998.78"
       cy="942.913"
       r="180.315"
       id="circle254" />
    <circle
       cx="8998.78"
       cy="1942.91"
       r="180.315"
       id="circle256" />
  </g>
  <g
     style="fill:#008484; fill-opacity:1.0;  stroke:#008484; stroke-width:59.0551; stroke-opacity:1;  stroke-linecap:round; stroke-linejoin:round;"
     id="g258" />
  <g
     style="fill:#008484; fill-opacity:0.0;  stroke:#008484; stroke-width:59.0551; stroke-opacity:1;  stroke-linecap:round; stroke-linejoin:round;"
     id="g260">
    <path
       d="M2748 5162 L3748 5162 "
       id="path262" />
    <path
       d="M3632.85 4081.94 A600 600 0.0 0 0 3248.78 3942.91 "
       id="path264" />
    <path
       d="M3248.6 3943.66 A599.256 599.256 0.0 0 0 2850.78 4094.91 "
       id="path266" />
    <path
       d="M3248.79 5142.18 A599.27 599.27 0.0 0 0 3638.78 4997.91 "
       id="path268" />
    <path
       d="M2864.72 5003.88 A600 600 0.0 0 0 3248.78 5142.91 "
       id="path270" />
    <path
       d="M3598.05 5030.77 A600 600 0.0 0 0 3848.78 4542.91 "
       id="path272" />
    <path
       d="M3848.78 4542.6 A600 600 0.0 0 0 3608.78 4062.91 "
       id="path274" />
    <path
       d="M2649.49 4543.09 A599.294 599.294 0.0 0 0 2880.78 5015.91 "
       id="path276" />
    <path
       d="M2880.21 4069.46 A600 600 0.0 0 0 2648.78 4542.91 "
       id="path278" />
    <path
       d="M3498.78 4542.91 A250 250 0.0 0 0 3248.78 4292.91 "
       id="path280" />
    <path
       d="M3648.78 4542.91 A400 400 0.0 0 0 3248.78 4142.91 "
       id="path282" />
    <path
       d="M2998.78 4542.91 A250 250 0.0 0 0 3248.78 4792.91 "
       id="path284" />
    <path
       d="M2848.78 4542.91 A400 400 0.0 0 0 3248.78 4942.91 "
       id="path286" />
    <path
       d="M3761.94 5156.65 A800 800 0.0 0 0 4048.78 4542.91 "
       id="path288" />
    <path
       d="M4047.78 4542.53 A799 799 0.0 0 0 3624.78 3837.91 "
       id="path290" />
    <path
       d="M2449.81 4543.92 A798.972 798.972 0.0 0 0 2732.78 5152.91 "
       id="path292" />
    <path
       d="M2851.2 3848.7 A800 800 0.0 0 0 2448.78 4542.91 "
       id="path294" />
    <path
       d="M3628.05 3838.53 A800 800 0.0 0 0 3248.78 3742.91 "
       id="path296" />
    <path
       d="M3248.74 3743.34 A799.576 799.576 0.0 0 0 2829.78 3861.91 "
       id="path298" />
    <path
       d="M2748 2412 L3748 2412 "
       id="path300" />
    <path
       d="M3632.85 1331.94 A600 600 0.0 0 0 3248.78 1192.91 "
       id="path302" />
    <path
       d="M3248.6 1193.66 A599.256 599.256 0.0 0 0 2850.78 1344.91 "
       id="path304" />
    <path
       d="M3248.79 2392.18 A599.27 599.27 0.0 0 0 3638.78 2247.91 "
       id="path306" />
    <path
       d="M2864.72 2253.88 A600 600 0.0 0 0 3248.78 2392.91 "
       id="path308" />
    <path
       d="M3598.05 2280.77 A600 600 0.0 0 0 3848.78 1792.91 "
       id="path310" />
    <path
       d="M3848.78 1792.6 A600 600 0.0 0 0 3608.78 1312.91 "
       id="path312" />
    <path
       d="M2649.49 1793.09 A599.294 599.294 0.0 0 0 2880.78 2265.91 "
       id="path314" />
    <path
       d="M2880.21 1319.46 A600 600 0.0 0 0 2648.78 1792.91 "
       id="path316" />
    <path
       d="M3498.78 1792.91 A250 250 0.0 0 0 3248.78 1542.91 "
       id="path318" />
    <path
       d="M3648.78 1792.91 A400 400 0.0 0 0 3248.78 1392.91 "
       id="path320" />
    <path
       d="M2998.78 1792.91 A250 250 0.0 0 0 3248.78 2042.91 "
       id="path322" />
    <path
       d="M2848.78 1792.91 A400 400 0.0 0 0 3248.78 2192.91 "
       id="path324" />
    <path
       d="M3761.94 2406.65 A800 800 0.0 0 0 4048.78 1792.91 "
       id="path326" />
    <path
       d="M4047.78 1792.53 A799 799 0.0 0 0 3624.78 1087.91 "
       id="path328" />
    <path
       d="M2449.81 1793.92 A798.972 798.972 0.0 0 0 2732.78 2402.91 "
       id="path330" />
    <path
       d="M2851.2 1098.7 A800 800 0.0 0 0 2448.78 1792.91 "
       id="path332" />
    <path
       d="M3628.05 1088.53 A800 800 0.0 0 0 3248.78 992.913 "
       id="path334" />
    <path
       d="M3248.74 993.337 A799.576 799.576 0.0 0 0 2829.78 1111.91 "
       id="path336" />
    <path
       d="M8486 5332 L8486 5942 "
       id="path338" />
    <path
       d="M8998 5332 L8486 5332 "
       id="path340" />
    <path
       d="M10648 5892 L12948 5892 "
       id="path342" />
    <path
       d="M12948 5892 L12948 5992 "
       id="path344" />
    <path
       d="M12948 5992 L10648 5992 "
       id="path346" />
    <path
       d="M10648 5992 L10648 5942 "
       id="path348" />
    <path
       d="M10648 5942 L12948 5942 "
       id="path350" />
    <path
       d="M9598 6042 L9498 6042 "
       id="path352" />
    <path
       d="M9598 5842 L9498 5842 "
       id="path354" />
    <path
       d="M9598 5442 L10598 5442 "
       id="path356" />
    <path
       d="M9598 5442 L9598 6442 "
       id="path358" />
    <path
       d="M9598 6442 L10598 6442 "
       id="path360" />
    <path
       d="M10598 5842 L12998 5842 "
       id="path362" />
    <path
       d="M12998 5842 L12998 6042 "
       id="path364" />
    <path
       d="M12998 6042 L10598 6042 "
       id="path366" />
    <path
       d="M10598 6442 L10598 5442 "
       id="path368" />
    <circle
       cx="4998.78"
       cy="3492.91"
       r="50"
       id="circle370" />
    <path
       d="M4748 3742 L6748 3742 "
       id="path372" />
    <path
       d="M4748 2442 L6748 2442 "
       id="path374" />
    <path
       d="M4748 3942 L6748 3942 "
       id="path376" />
    <path
       d="M4748 3942 L4748 2442 "
       id="path378" />
    <path
       d="M6748 3942 L6748 2442 "
       id="path380" />
    <path
       d="M8486 332 L8486 942 "
       id="path382" />
    <path
       d="M8998 332 L8486 332 "
       id="path384" />
    <path
       d="M10648 892 L12948 892 "
       id="path386" />
    <path
       d="M12948 892 L12948 992 "
       id="path388" />
    <path
       d="M12948 992 L10648 992 "
       id="path390" />
    <path
       d="M10648 992 L10648 942 "
       id="path392" />
    <path
       d="M10648 942 L12948 942 "
       id="path394" />
    <path
       d="M9598 842 L9448 842 "
       id="path396" />
    <path
       d="M9598 1042 L9448 1042 "
       id="path398" />
    <path
       d="M9598 1842 L9448 1842 "
       id="path400" />
    <path
       d="M9598 2042 L9448 2042 "
       id="path402" />
    <path
       d="M9598 442 L10598 442 "
       id="path404" />
    <path
       d="M9598 1442 L10598 1442 "
       id="path406" />
    <path
       d="M9598 1442 L9598 2442 "
       id="path408" />
    <path
       d="M9598 2442 L10598 2442 "
       id="path410" />
    <path
       d="M10598 1842 L12998 1842 "
       id="path412" />
    <path
       d="M12998 1842 L12998 2042 "
       id="path414" />
    <path
       d="M12998 2042 L10598 2042 "
       id="path416" />
    <path
       d="M10598 2442 L10598 1442 "
       id="path418" />
    <path
       d="M10598 1442 L10598 442 "
       id="path420" />
    <path
       d="M12998 1042 L10598 1042 "
       id="path422" />
    <path
       d="M12998 842 L12998 1042 "
       id="path424" />
    <path
       d="M10598 842 L12998 842 "
       id="path426" />
    <path
       d="M9598 1442 L10598 1442 "
       id="path428" />
    <path
       d="M9598 442 L9598 1442 "
       id="path430" />
    <path
       d="M7233 1639 L7233 1246 "
       id="path432" />
    <path
       d="M7764 1246 L7764 1639 "
       id="path434" />
    <path
       d="M4195 6208 L3801 6208 "
       id="path436" />
    <path
       d="M3801 5677 L4195 5677 "
       id="path438" />
    <path
       d="M7233 3139 L7233 2746 "
       id="path440" />
    <path
       d="M7764 2746 L7764 3139 "
       id="path442" />
    <path
       d="M7233 4639 L7233 4246 "
       id="path444" />
    <path
       d="M7764 4246 L7764 4639 "
       id="path446" />
    <path
       d="M4195 3208 L3801 3208 "
       id="path448" />
    <path
       d="M3801 2677 L4195 2677 "
       id="path450" />
  </g>
  <g
     style="fill:#C2C200; fill-opacity:0.0;  stroke:#C2C200; stroke-width:59.0551; stroke-opacity:1;  stroke-linecap:round; stroke-linejoin:round;"
     id="g452">
    <path
       d="M4576 4733 L4183 4733 L4183 4639 L4201 4583 L4239 4546 L4276 4527 L4351 4508 L4408 4508 L4483 4527 L4520 4546 L4558 4583 L4576 4639 L4576 4733 "
       id="path454" />
    <path
       d="M4576 4133 L4576 4358 "
       id="path456" />
    <path
       d="M4576 4246 L4183 4246 L4239 4283 L4276 4321 L4295 4358 "
       id="path458" />
    <path
       d="M4576 2033 L4183 2033 L4183 1939 L4201 1883 L4239 1846 L4276 1827 L4351 1808 L4408 1808 L4483 1827 L4520 1846 L4558 1883 L4576 1939 L4576 2033 "
       id="path460" />
    <path
       d="M4220 1658 L4201 1639 L4183 1602 L4183 1508 L4201 1471 L4220 1452 L4258 1433 L4295 1433 L4351 1452 L4576 1677 L4576 1433 "
       id="path462" />
    <path
       d="M9808 6171 L9808 5777 L9958 5777 L9995 5796 L10014 5814 L10033 5852 L10033 5908 L10014 5946 L9995 5964 L9958 5983 L9808 5983 "
       id="path464" />
    <path
       d="M10183 5814 L10201 5796 L10239 5777 L10333 5777 L10370 5796 L10389 5814 L10408 5852 L10408 5889 L10389 5946 L10164 6171 L10408 6171 "
       id="path466" />
    <path
       d="M5148 3177 L5148 3496 L5167 3533 L5186 3552 L5223 3571 L5298 3571 L5336 3552 L5355 3533 L5373 3496 L5373 3177 "
       id="path468" />
    <path
       d="M5767 3571 L5542 3571 "
       id="path470" />
    <path
       d="M5655 3571 L5655 3177 L5617 3233 L5580 3271 L5542 3289 "
       id="path472" />
    <path
       d="M9808 2121 L9808 1727 L9958 1727 L9995 1746 L10014 1764 L10033 1802 L10033 1858 L10014 1896 L9995 1914 L9958 1933 L9808 1933 "
       id="path474" />
    <path
       d="M10408 2121 L10183 2121 "
       id="path476" />
    <path
       d="M10295 2121 L10295 1727 L10258 1783 L10220 1821 L10183 1839 "
       id="path478" />
    <path
       d="M8276 1508 L8089 1639 "
       id="path480" />
    <path
       d="M8276 1733 L7883 1733 L7883 1583 L7901 1546 L7920 1527 L7958 1508 L8014 1508 L8051 1527 L8070 1546 L8089 1583 L8089 1733 "
       id="path482" />
    <path
       d="M8276 1133 L8276 1358 "
       id="path484" />
    <path
       d="M8276 1246 L7883 1246 L7939 1283 L7976 1321 L7995 1358 "
       id="path486" />
    <path
       d="M4233 5521 L4101 5333 "
       id="path488" />
    <path
       d="M4008 5521 L4008 5127 L4158 5127 L4195 5146 L4214 5164 L4233 5202 L4233 5258 L4214 5296 L4195 5314 L4158 5333 L4008 5333 "
       id="path490" />
    <path
       d="M4570 5258 L4570 5521 "
       id="path492" />
    <path
       d="M4476 5108 L4383 5389 L4626 5389 "
       id="path494" />
    <path
       d="M8276 3008 L8089 3139 "
       id="path496" />
    <path
       d="M8276 3233 L7883 3233 L7883 3083 L7901 3046 L7920 3027 L7958 3008 L8014 3008 L8051 3027 L8070 3046 L8089 3083 L8089 3233 "
       id="path498" />
    <path
       d="M7920 2858 L7901 2839 L7883 2802 L7883 2708 L7901 2671 L7920 2652 L7958 2633 L7995 2633 L8051 2652 L8276 2877 L8276 2633 "
       id="path500" />
    <path
       d="M8276 4508 L8089 4639 "
       id="path502" />
    <path
       d="M8276 4733 L7883 4733 L7883 4583 L7901 4546 L7920 4527 L7958 4508 L8014 4508 L8051 4527 L8070 4546 L8089 4583 L8089 4733 "
       id="path504" />
    <path
       d="M7883 4377 L7883 4133 L8033 4264 L8033 4208 L8051 4171 L8070 4152 L8108 4133 L8201 4133 L8239 4152 L8258 4171 L8276 4208 L8276 4321 L8258 4358 L8239 4377 "
       id="path506" />
    <path
       d="M4233 3771 L4101 3583 "
       id="path508" />
    <path
       d="M4008 3771 L4008 3377 L4158 3377 L4195 3396 L4214 3414 L4233 3452 L4233 3508 L4214 3546 L4195 3564 L4158 3583 L4008 3583 "
       id="path510" />
    <path
       d="M4589 3377 L4401 3377 L4383 3564 L4401 3546 L4439 3527 L4533 3527 L4570 3546 L4589 3564 L4608 3602 L4608 3696 L4589 3733 L4570 3752 L4533 3771 L4439 3771 L4401 3752 L4383 3733 "
       id="path512" />
  </g>
  <g
     style="fill:#C2C200; fill-opacity:0.0;  stroke:#C2C200; stroke-width:59.0551; stroke-opacity:1;  stroke-linecap:round; stroke-linejoin:round;"
     id="g514">
    <path
       d="M2348 3721 L2648 3721 "
       id="path516" />
    <path
       d="M2348 971 L2648 971 "
       id="path518" />
    <path
       d="M2498 1121 L2498 821 "
       id="path520" />
    <path
       d="M9420 5171 L9420 4777 "
       id="path522" />
    <path
       d="M9608 4908 L9608 5171 "
       id="path524" />
    <path
       d="M9608 4946 L9626 4927 L9664 4908 L9720 4908 L9758 4927 L9776 4964 L9776 5171 "
       id="path526" />
    <path
       d="M5133 2971 L4945 2971 L4945 2577 "
       id="path528" />
    <path
       d="M5264 2971 L5264 2577 L5395 2858 L5526 2577 L5526 2971 "
       id="path530" />
    <path
       d="M5676 2577 L5920 2577 L5789 2727 L5845 2727 L5883 2746 L5901 2764 L5920 2802 L5920 2896 L5901 2933 L5883 2952 L5845 2971 L5733 2971 L5695 2952 L5676 2933 "
       id="path532" />
    <path
       d="M6108 2971 L6183 2971 L6220 2952 L6239 2933 L6276 2877 L6295 2802 L6295 2652 L6276 2614 L6258 2596 L6220 2577 L6145 2577 L6108 2596 L6089 2614 L6070 2652 L6070 2746 L6089 2783 L6108 2802 L6145 2821 L6220 2821 L6258 2802 L6276 2783 L6295 2746 "
       id="path534" />
    <path
       d="M6426 2577 L6670 2577 L6539 2727 L6595 2727 L6633 2746 L6651 2764 L6670 2802 L6670 2896 L6651 2933 L6633 2952 L6595 2971 L6483 2971 L6445 2952 L6426 2933 "
       id="path536" />
    <path
       d="M8820 3021 L8820 2627 L8970 2627 L9008 2646 L9026 2664 L9045 2702 L9045 2758 L9026 2796 L9008 2814 L8970 2833 L8820 2833 "
       id="path538" />
    <path
       d="M9270 3021 L9233 3002 L9214 2983 L9195 2946 L9195 2833 L9214 2796 L9233 2777 L9270 2758 L9326 2758 L9364 2777 L9383 2796 L9401 2833 L9401 2946 L9383 2983 L9364 3002 L9326 3021 L9270 3021 "
       id="path540" />
    <path
       d="M9533 2758 L9608 3021 L9683 2833 L9758 3021 L9833 2758 "
       id="path542" />
    <path
       d="M10133 3002 L10095 3021 L10020 3021 L9983 3002 L9964 2964 L9964 2814 L9983 2777 L10020 2758 L10095 2758 L10133 2777 L10151 2814 L10151 2852 L9964 2889 "
       id="path544" />
    <path
       d="M10320 3021 L10320 2758 "
       id="path546" />
    <path
       d="M10320 2833 L10339 2796 L10358 2777 L10395 2758 L10433 2758 "
       id="path548" />
  </g>
  <g
     style="fill:#C2C200; fill-opacity:0.0;  stroke:#C2C200; stroke-width:39.3701; stroke-opacity:1;  stroke-linecap:round; stroke-linejoin:round;"
     id="g550">
    <path
       d="M1998 192 L10748 192 "
       id="path552" />
    <path
       d="M1998 6692 L1998 192 "
       id="path554" />
    <path
       d="M10748 6692 L1998 6692 "
       id="path556" />
    <path
       d="M10748 192 L10748 6692 "
       id="path558" />
  </g>
</svg>
