<?xml version="1.0" standalone="no"?>
 <!DOCTYPE svg PUBLIC "-//W3C//DTD SVG 1.1//EN" 
 "http://www.w3.org/Graphics/SVG/1.1/DTD/svg11.dtd"> 
<svg xmlns="http://www.w3.org/2000/svg" version="1.1" 
    width="2.88798cm" height="1.6637cm" viewBox="0 0 11370 6550 ">
<title>SVG Picture created as TritLedSmd-brd.svg date 2015/04/27 22:53:58 </title>
  <desc>Picture generated by PCBNEW </desc>
<g style="fill:#000000; fill-opacity:1;stroke:#000000; stroke-opacity:1;
stroke-linecap:round; stroke-linejoin:round; "
 transform="translate(0 0) scale(1 1)">
</g>
<g style="fill:#840084; fill-opacity:0.0; 
stroke:#840084; stroke-width:118.11; stroke-opacity:1; 
stroke-linecap:round; stroke-linejoin:round;">
<path d="M6351 5608
L6013 5608
" />
<path d="M6182 6198
L6182 5608
" />
<path d="M5817 6198
L5817 5804
" />
<path d="M5817 5917
L5788 5861
L5760 5833
L5704 5804
L5648 5804
" />
<path d="M5451 6198
L5451 5804
" />
<path d="M5451 5608
L5479 5636
L5451 5664
L5423 5636
L5451 5608
L5451 5664
" />
<path d="M5254 5804
L5029 5804
" />
<path d="M5170 5608
L5170 6114
L5142 6170
L5085 6198
L5029 6198
" />
</g>
<g style="fill:#840084; fill-opacity:0.0; 
stroke:#840084; stroke-width:39.3701; stroke-opacity:1; 
stroke-linecap:round; stroke-linejoin:round;">
<path d="M6406 559
L6106 559
" />
<path d="M6256 709
L6256 409
" />
<path d="M5937 353
L5918 334
L5881 315
L5787 315
L5749 334
L5731 353
L5712 390
L5712 428
L5731 484
L5956 709
L5712 709
" />
<path d="M5524 690
L5524 709
L5543 747
L5562 765
" />
<path d="M5168 315
L5356 315
L5374 503
L5356 484
L5318 465
L5224 465
L5187 484
L5168 503
L5149 540
L5149 634
L5168 672
L5187 690
L5224 709
L5318 709
L5356 690
L5374 672
" />
<path d="M4850 503
L4793 522
L4775 540
L4756 578
L4756 634
L4775 672
L4793 690
L4831 709
L4981 709
L4981 315
L4850 315
L4812 334
L4793 353
L4775 390
L4775 428
L4793 465
L4812 484
L4850 503
L4981 503
" />
<path d="M6406 1559
L6106 1559
" />
<path d="M5937 1353
L5918 1334
L5881 1315
L5787 1315
L5749 1334
L5731 1353
L5712 1390
L5712 1428
L5731 1484
L5956 1709
L5712 1709
" />
<path d="M5524 1690
L5524 1709
L5543 1747
L5562 1765
" />
<path d="M5168 1315
L5356 1315
L5374 1503
L5356 1484
L5318 1465
L5224 1465
L5187 1484
L5168 1503
L5149 1540
L5149 1634
L5168 1672
L5187 1690
L5224 1709
L5318 1709
L5356 1690
L5374 1672
" />
<path d="M4850 1503
L4793 1522
L4775 1540
L4756 1578
L4756 1634
L4775 1672
L4793 1690
L4831 1709
L4981 1709
L4981 1315
L4850 1315
L4812 1334
L4793 1353
L4775 1390
L4775 1428
L4793 1465
L4812 1484
L4850 1503
L4981 1503
" />
</g>
<g style="fill:#840084; fill-opacity:0.0; 
stroke:#840084; stroke-width:118.11; stroke-opacity:1; 
stroke-linecap:round; stroke-linejoin:round;">
<path d="M815 2823
L365 2823
" />
<path d="M590 3048
L590 2598
" />
<path d="M632 5306
L632 5756
" />
</g>
<g style="fill:#840084; fill-opacity:0.0; 
stroke:#840084; stroke-width:59.0551; stroke-opacity:1; 
stroke-linecap:round; stroke-linejoin:round;">
<path d="M1840 5001
L840 5001
" />
<path d="M1340.55 3781.5 A600 600 0.0 0 0 956.485 3920.53 " />
<path d="M1738.55 3933.5 A599.256 599.256 0.0 0 0 1340.74 3782.24 " />
<path d="M950.551 4836.5 A599.27 599.27 0.0 0 0 1340.54 4980.77 " />
<path d="M1340.55 4981.5 A600 600 0.0 0 0 1724.62 4842.47 " />
<path d="M740.551 4381.5 A600 600 0.0 0 0 991.277 4869.36 " />
<path d="M980.551 3901.5 A600 600 0.0 0 0 740.551 4381.18 " />
<path d="M1708.55 4854.5 A599.294 599.294 0.0 0 0 1939.84 4381.67 " />
<path d="M1940.55 4381.5 A600 600 0.0 0 0 1709.12 3908.05 " />
<path d="M1340.55 4131.5 A250 250 0.0 0 0 1090.55 4381.5 " />
<path d="M1340.55 3981.5 A400 400 0.0 0 0 940.551 4381.5 " />
<path d="M1340.55 4631.5 A250 250 0.0 0 0 1590.55 4381.5 " />
<path d="M1340.55 4781.5 A400 400 0.0 0 0 1740.55 4381.5 " />
<path d="M540.551 4381.5 A800 800 0.0 0 0 827.391 4995.23 " />
<path d="M964.551 3676.5 A799 799 0.0 0 0 541.551 4381.11 " />
<path d="M1856.55 4991.5 A798.972 798.972 0.0 0 0 2139.52 4382.5 " />
<path d="M2140.55 4381.5 A800 800 0.0 0 0 1738.13 3687.28 " />
<path d="M1340.55 3581.5 A800 800 0.0 0 0 961.281 3677.11 " />
<path d="M1759.55 3700.5 A799.576 799.576 0.0 0 0 1340.59 3581.92 " />
<path d="M1840 2251
L840 2251
" />
<path d="M1340.55 1031.5 A600 600 0.0 0 0 956.485 1170.53 " />
<path d="M1738.55 1183.5 A599.256 599.256 0.0 0 0 1340.74 1032.24 " />
<path d="M950.551 2086.5 A599.27 599.27 0.0 0 0 1340.54 2230.77 " />
<path d="M1340.55 2231.5 A600 600 0.0 0 0 1724.62 2092.47 " />
<path d="M740.551 1631.5 A600 600 0.0 0 0 991.277 2119.36 " />
<path d="M980.551 1151.5 A600 600 0.0 0 0 740.551 1631.18 " />
<path d="M1708.55 2104.5 A599.294 599.294 0.0 0 0 1939.84 1631.67 " />
<path d="M1940.55 1631.5 A600 600 0.0 0 0 1709.12 1158.05 " />
<path d="M1340.55 1381.5 A250 250 0.0 0 0 1090.55 1631.5 " />
<path d="M1340.55 1231.5 A400 400 0.0 0 0 940.551 1631.5 " />
<path d="M1340.55 1881.5 A250 250 0.0 0 0 1590.55 1631.5 " />
<path d="M1340.55 2031.5 A400 400 0.0 0 0 1740.55 1631.5 " />
<path d="M540.551 1631.5 A800 800 0.0 0 0 827.391 2245.23 " />
<path d="M964.551 926.496 A799 799 0.0 0 0 541.551 1631.11 " />
<path d="M1856.55 2241.5 A798.972 798.972 0.0 0 0 2139.52 1632.5 " />
<path d="M2140.55 1631.5 A800 800 0.0 0 0 1738.13 937.284 " />
<path d="M1340.55 831.496 A800 800 0.0 0 0 961.281 927.115 " />
<path d="M1759.55 950.497 A799.576 799.576 0.0 0 0 1340.59 831.92 " />
<path d="M6578 6391
L6578 5781
" />
<path d="M7090 6391
L6578 6391
" />
<path d="M8740 5831
L11040 5831
" />
<path d="M11040 5831
L11040 5731
" />
<path d="M11040 5731
L8740 5731
" />
<path d="M8740 5731
L8740 5781
" />
<path d="M8740 5781
L11040 5781
" />
<path d="M7690 5681
L7590 5681
" />
<path d="M7690 5881
L7590 5881
" />
<path d="M7690 6281
L8690 6281
" />
<path d="M7690 6281
L7690 5281
" />
<path d="M7690 5281
L8690 5281
" />
<path d="M8690 5881
L11090 5881
" />
<path d="M11090 5881
L11090 5681
" />
<path d="M11090 5681
L8690 5681
" />
<path d="M8690 5281
L8690 6281
" />
<path d="M6578 2391
L6578 1781
" />
<path d="M7090 2391
L6578 2391
" />
<path d="M8740 1831
L11040 1831
" />
<path d="M11040 1831
L11040 1731
" />
<path d="M11040 1731
L8740 1731
" />
<path d="M8740 1731
L8740 1781
" />
<path d="M8740 1781
L11040 1781
" />
<path d="M7690 1881
L7540 1881
" />
<path d="M7690 1681
L7540 1681
" />
<path d="M7690 881
L7540 881
" />
<path d="M7690 681
L7540 681
" />
<path d="M7690 2281
L8690 2281
" />
<path d="M7690 1281
L8690 1281
" />
<path d="M7690 1281
L7690 281
" />
<path d="M7690 281
L8690 281
" />
<path d="M8690 881
L11090 881
" />
<path d="M11090 881
L11090 681
" />
<path d="M11090 681
L8690 681
" />
<path d="M8690 281
L8690 1281
" />
<path d="M8690 1281
L8690 2281
" />
<path d="M11090 1681
L8690 1681
" />
<path d="M11090 1881
L11090 1681
" />
<path d="M8690 1881
L11090 1881
" />
<path d="M7690 1281
L8690 1281
" />
<path d="M7690 2281
L7690 1281
" />
</g>
<g style="fill:#840000; fill-opacity:0.0; 
stroke:#840000; stroke-width:59.0551; stroke-opacity:1; 
stroke-linecap:round; stroke-linejoin:round;">
<path d="M2768 3990
L2374 3990
L2374 4084
L2393 4140
L2431 4178
L2468 4197
L2543 4215
L2599 4215
L2674 4197
L2712 4178
L2749 4140
L2768 4084
L2768 3990
" />
<path d="M2768 4590
L2768 4365
" />
<path d="M2768 4478
L2374 4478
L2431 4440
L2468 4403
L2487 4365
" />
<path d="M2768 1240
L2374 1240
L2374 1334
L2393 1390
L2431 1428
L2468 1447
L2543 1465
L2599 1465
L2674 1447
L2712 1428
L2749 1390
L2768 1334
L2768 1240
" />
<path d="M2412 1615
L2393 1634
L2374 1672
L2374 1765
L2393 1803
L2412 1822
L2449 1840
L2487 1840
L2543 1822
L2768 1597
L2768 1840
" />
<path d="M8368 4340
L7974 4340
L7974 4490
L7993 4528
L8012 4547
L8049 4565
L8106 4565
L8143 4547
L8162 4528
L8181 4490
L8181 4340
" />
<path d="M8012 4715
L7993 4734
L7974 4772
L7974 4865
L7993 4903
L8012 4922
L8049 4940
L8087 4940
L8143 4922
L8368 4697
L8368 4940
" />
<path d="M8368 2640
L7974 2640
L7974 2790
L7993 2828
L8012 2847
L8049 2865
L8106 2865
L8143 2847
L8162 2828
L8181 2790
L8181 2640
" />
<path d="M8368 3240
L8368 3015
" />
<path d="M8368 3128
L7974 3128
L8031 3090
L8068 3053
L8087 3015
" />
</g>
<g style="fill:#840000; fill-opacity:0.0; 
stroke:#840000; stroke-width:39.3701; stroke-opacity:1; 
stroke-linecap:round; stroke-linejoin:round;">
</g>
<g style="fill:#840000; fill-opacity:1.0; 
stroke:#840000; stroke-width:39.3701; stroke-opacity:1; 
stroke-linecap:round; stroke-linejoin:round;">
<circle cx="1340.55" cy="3781.5" r="310.315" /> 
<circle cx="1340.55" cy="4781.5" r="310.315" /> 
<circle cx="1340.55" cy="1031.5" r="310.315" /> 
<circle cx="1340.55" cy="2031.5" r="310.315" /> 
<polyline style="fill-rule:evenodd;"
points="6670,6201
6670,5361
7510,5361
7510,6201
6670,6201
" /> 
<polyline style="fill-rule:evenodd;"
points="6710,2161
6710,1401
7470,1401
7470,2161
6710,2161
" /> 
</g>
<g style="fill:#840000; fill-opacity:1.0; 
stroke:#840000; stroke-width:800; stroke-opacity:1; 
stroke-linecap:round; stroke-linejoin:round;">
</g>
<g style="fill:#840000; fill-opacity:0.0; 
stroke:#840000; stroke-width:800; stroke-opacity:1; 
stroke-linecap:round; stroke-linejoin:round;">
<path d="M7090 781
L7090 781
" />
</g>
<g style="fill:#C2C2C2; fill-opacity:0.0; 
stroke:#C2C2C2; stroke-width:39.3701; stroke-opacity:1; 
stroke-linecap:round; stroke-linejoin:round;">
</g>
<g style="fill:#C2C2C2; fill-opacity:1.0; 
stroke:#C2C2C2; stroke-width:39.3701; stroke-opacity:1; 
stroke-linecap:round; stroke-linejoin:round;">
<circle cx="5090.55" cy="2031.5" r="216.535" /> 
<circle cx="3590.55" cy="5281.5" r="216.535" /> 
</g>
<g style="fill:#008400; fill-opacity:1.0; 
stroke:#008400; stroke-width:236.22; stroke-opacity:1; 
stroke-linecap:round; stroke-linejoin:round;">
</g>
<g style="fill:#008400; fill-opacity:0.0; 
stroke:#008400; stroke-width:236.22; stroke-opacity:1; 
stroke-linecap:round; stroke-linejoin:round;">
<path d="M5090 5281
L5090 2031
" />
<path d="M3590 5281
L5090 5281
" />
</g>
<g style="fill:#FFFFFF; fill-opacity:0.0; 
stroke:#FFFFFF; stroke-width:39.3701; stroke-opacity:1; 
stroke-linecap:round; stroke-linejoin:round;">
</g>
<g style="fill:#FFFFFF; fill-opacity:1.0; 
stroke:#FFFFFF; stroke-width:39.3701; stroke-opacity:1; 
stroke-linecap:round; stroke-linejoin:round;">
<circle cx="5090.55" cy="2031.5" r="59.0551" /> 
<circle cx="3590.55" cy="5281.5" r="59.0551" /> 
<circle cx="1340.55" cy="3781.5" r="140.315" /> 
<circle cx="1340.55" cy="4781.5" r="140.315" /> 
<circle cx="1340.55" cy="1031.5" r="140.315" /> 
<circle cx="1340.55" cy="2031.5" r="140.315" /> 
<circle cx="7090.55" cy="5781.5" r="180.315" /> 
<circle cx="7090.55" cy="1781.5" r="180.315" /> 
<circle cx="7090.55" cy="781.496" r="180.315" /> 
</g>
<g style="fill:#840000; fill-opacity:1.0; 
stroke:#840000; stroke-width:39.3701; stroke-opacity:1; 
stroke-linecap:round; stroke-linejoin:round;">
<circle cx="1340.55" cy="3781.5" r="310.315" /> 
<circle cx="1340.55" cy="4781.5" r="310.315" /> 
<circle cx="1340.55" cy="1031.5" r="310.315" /> 
<circle cx="1340.55" cy="2031.5" r="310.315" /> 
<polyline style="fill-rule:evenodd;"
points="6670,6201
6670,5361
7510,5361
7510,6201
6670,6201
" /> 
</g>
<g style="fill:#840000; fill-opacity:1.0; 
stroke:#840000; stroke-width:240; stroke-opacity:1; 
stroke-linecap:round; stroke-linejoin:round;">
</g>
<g style="fill:#840000; fill-opacity:0.0; 
stroke:#840000; stroke-width:240; stroke-opacity:1; 
stroke-linecap:round; stroke-linejoin:round;">
<path d="M3090 3961
L3090 4301
" />
<path d="M3590 3961
L3590 4301
" />
<path d="M4090 3961
L4090 4301
" />
<path d="M4590 3961
L4590 4301
" />
<path d="M4590 1761
L4590 2101
" />
<path d="M4090 1761
L4090 2101
" />
<path d="M3590 1761
L3590 2101
" />
<path d="M3090 1761
L3090 2101
" />
</g>
<g style="fill:#840000; fill-opacity:0.0; 
stroke:#840000; stroke-width:39.3701; stroke-opacity:1; 
stroke-linecap:round; stroke-linejoin:round;">
</g>
<g style="fill:#840000; fill-opacity:1.0; 
stroke:#840000; stroke-width:39.3701; stroke-opacity:1; 
stroke-linecap:round; stroke-linejoin:round;">
<polyline style="fill-rule:evenodd;"
points="6710,2161
6710,1401
7470,1401
7470,2161
6710,2161
" /> 
</g>
<g style="fill:#840000; fill-opacity:1.0; 
stroke:#840000; stroke-width:800; stroke-opacity:1; 
stroke-linecap:round; stroke-linejoin:round;">
</g>
<g style="fill:#840000; fill-opacity:0.0; 
stroke:#840000; stroke-width:800; stroke-opacity:1; 
stroke-linecap:round; stroke-linejoin:round;">
<path d="M7090 781
L7090 781
" />
</g>
<g style="fill:#840000; fill-opacity:0.0; 
stroke:#840000; stroke-width:39.3701; stroke-opacity:1; 
stroke-linecap:round; stroke-linejoin:round;">
</g>
<g style="fill:#840000; fill-opacity:1.0; 
stroke:#840000; stroke-width:39.3701; stroke-opacity:1; 
stroke-linecap:round; stroke-linejoin:round;">
<polyline style="fill-rule:evenodd;"
points="5433,907
5748,907
5748,1064
5433,1064
5433,907
" /> 
<polyline style="fill-rule:evenodd;"
points="5433,1498
5748,1498
5748,1655
5433,1655
5433,1498
" /> 
<polyline style="fill-rule:evenodd;"
points="1716,5938
1716,5624
1874,5624
1874,5938
1716,5938
" /> 
<polyline style="fill-rule:evenodd;"
points="2307,5938
2307,5624
2464,5624
2464,5938
2307,5938
" /> 
<polyline style="fill-rule:evenodd;"
points="5433,2407
5748,2407
5748,2564
5433,2564
5433,2407
" /> 
<polyline style="fill-rule:evenodd;"
points="5433,2998
5748,2998
5748,3155
5433,3155
5433,2998
" /> 
<polyline style="fill-rule:evenodd;"
points="5433,3907
5748,3907
5748,4064
5433,4064
5433,3907
" /> 
<polyline style="fill-rule:evenodd;"
points="5433,4498
5748,4498
5748,4655
5433,4655
5433,4498
" /> 
<polyline style="fill-rule:evenodd;"
points="1716,2938
1716,2624
1874,2624
1874,2938
1716,2938
" /> 
<polyline style="fill-rule:evenodd;"
points="2307,2938
2307,2624
2464,2624
2464,2938
2307,2938
" /> 
</g>
<g style="fill:#C2C2C2; fill-opacity:1.0; 
stroke:#C2C2C2; stroke-width:39.3701; stroke-opacity:1; 
stroke-linecap:round; stroke-linejoin:round;">
<circle cx="5090.55" cy="2031.5" r="216.535" /> 
<circle cx="3590.55" cy="5281.5" r="216.535" /> 
</g>
<g style="fill:#840000; fill-opacity:1.0; 
stroke:#840000; stroke-width:393.701; stroke-opacity:1; 
stroke-linecap:round; stroke-linejoin:round;">
</g>
<g style="fill:#840000; fill-opacity:0.0; 
stroke:#840000; stroke-width:393.701; stroke-opacity:1; 
stroke-linecap:round; stroke-linejoin:round;">
<path d="M590 1781
L590 3031
" />
<path d="M590 3031
L1340 3781
" />
<path d="M1340 531
L1340 1031
" />
<path d="M1340 1031
L590 1781
" />
<path d="M5590 531
L3090 531
" />
<path d="M3090 531
L3090 1931
" />
<path d="M5590 986
L5590 531
" />
<path d="M6590 531
L5590 531
" />
<path d="M3090 531
L1340 531
" />
<path d="M7090 781
L6590 781
" />
<path d="M6590 781
L6590 531
" />
<path d="M1340 5781
L1795 5781
" />
<path d="M1340 5031
L1340 5781
" />
<path d="M1795 2781
L1340 2781
" />
<path d="M1340 2781
L1340 2031
" />
</g>
<g style="fill:#840000; fill-opacity:0.0; 
stroke:#840000; stroke-width:236.22; stroke-opacity:1; 
stroke-linecap:round; stroke-linejoin:round;">
<path d="M3590 4131
L3590 5281
" />
<path d="M5090 2031
L5590 2031
" />
<path d="M5590 2031
L5590 1576
" />
<path d="M5590 2486
L5590 2031
" />
<path d="M5590 3531
L5590 3076
" />
<path d="M5590 3986
L5590 3531
" />
<path d="M4590 1931
L4590 1531
" />
<path d="M5090 3531
L4590 3031
" />
<path d="M4590 3031
L4590 1931
" />
<path d="M5590 3531
L5090 3531
" />
<path d="M3090 5781
L3090 4131
" />
<path d="M2385 5781
L3090 5781
" />
<path d="M3590 1931
L3590 1531
" />
<path d="M3590 2781
L3590 1931
" />
<path d="M2385 2781
L3590 2781
" />
<path d="M4090 4131
L4090 1931
" />
<path d="M4090 1931
L4090 1531
" />
<path d="M4090 5781
L4090 4131
" />
</g>
<g style="fill:#840000; fill-opacity:0.0; 
stroke:#840000; stroke-width:393.701; stroke-opacity:1; 
stroke-linecap:round; stroke-linejoin:round;">
<path d="M7090 5781
L4090 5781
" />
<path d="M6590 1781
L7090 1781
" />
<path d="M5590 5281
L4590 5281
" />
<path d="M4590 5281
L4590 4131
" />
<path d="M5590 4576
L5590 5281
" />
<path d="M5590 5281
L6090 5281
" />
<path d="M6090 5281
L6590 4781
" />
<path d="M6590 4781
L6590 1781
" />
</g>
<g style="fill:#FFFFFF; fill-opacity:0.0; 
stroke:#FFFFFF; stroke-width:39.3701; stroke-opacity:1; 
stroke-linecap:round; stroke-linejoin:round;">
</g>
<g style="fill:#FFFFFF; fill-opacity:1.0; 
stroke:#FFFFFF; stroke-width:39.3701; stroke-opacity:1; 
stroke-linecap:round; stroke-linejoin:round;">
<circle cx="5090.55" cy="2031.5" r="59.0551" /> 
<circle cx="3590.55" cy="5281.5" r="59.0551" /> 
<circle cx="1340.55" cy="3781.5" r="140.315" /> 
<circle cx="1340.55" cy="4781.5" r="140.315" /> 
<circle cx="1340.55" cy="1031.5" r="140.315" /> 
<circle cx="1340.55" cy="2031.5" r="140.315" /> 
<circle cx="7090.55" cy="5781.5" r="180.315" /> 
<circle cx="7090.55" cy="1781.5" r="180.315" /> 
<circle cx="7090.55" cy="781.496" r="180.315" /> 
</g>
<g style="fill:#008484; fill-opacity:0.0; 
stroke:#008484; stroke-width:59.0551; stroke-opacity:1; 
stroke-linecap:round; stroke-linejoin:round;">
<circle cx="3090.55" cy="3331.5" r="50" /> 
<path d="M2840 3581
L4840 3581
" />
<path d="M2840 2281
L4840 2281
" />
<path d="M2840 3781
L4840 3781
" />
<path d="M2840 3781
L2840 2281
" />
<path d="M4840 3781
L4840 2281
" />
<path d="M5324 1478
L5324 1084
" />
<path d="M5856 1084
L5856 1478
" />
<path d="M2287 6047
L1893 6047
" />
<path d="M1893 5515
L2287 5515
" />
<path d="M5324 2978
L5324 2584
" />
<path d="M5856 2584
L5856 2978
" />
<path d="M5324 4478
L5324 4084
" />
<path d="M5856 4084
L5856 4478
" />
<path d="M2287 3047
L1893 3047
" />
<path d="M1893 2515
L2287 2515
" />
</g>
<g style="fill:#C2C200; fill-opacity:0.0; 
stroke:#C2C200; stroke-width:59.0551; stroke-opacity:1; 
stroke-linecap:round; stroke-linejoin:round;">
<path d="M3790 815
L3790 1134
L3809 1172
L3828 1190
L3865 1209
L3940 1209
L3978 1190
L3996 1172
L4015 1134
L4015 815
" />
<path d="M4409 1209
L4184 1209
" />
<path d="M4296 1209
L4296 815
L4259 872
L4221 909
L4184 928
" />
<path d="M6368 1347
L6181 1478
" />
<path d="M6368 1572
L5974 1572
L5974 1422
L5993 1384
L6012 1365
L6049 1347
L6106 1347
L6143 1365
L6162 1384
L6181 1422
L6181 1572
" />
<path d="M6368 972
L6368 1197
" />
<path d="M6368 1084
L5974 1084
L6031 1122
L6068 1159
L6087 1197
" />
<path d="M2024 5409
L1893 5222
" />
<path d="M1799 5409
L1799 5015
L1949 5015
L1987 5034
L2006 5053
L2024 5090
L2024 5147
L2006 5184
L1987 5203
L1949 5222
L1799 5222
" />
<path d="M2362 5147
L2362 5409
" />
<path d="M2268 4997
L2174 5278
L2418 5278
" />
<path d="M6368 2847
L6181 2978
" />
<path d="M6368 3072
L5974 3072
L5974 2922
L5993 2884
L6012 2865
L6049 2847
L6106 2847
L6143 2865
L6162 2884
L6181 2922
L6181 3072
" />
<path d="M6012 2697
L5993 2678
L5974 2640
L5974 2547
L5993 2509
L6012 2490
L6049 2472
L6087 2472
L6143 2490
L6368 2715
L6368 2472
" />
<path d="M6368 4347
L6181 4478
" />
<path d="M6368 4572
L5974 4572
L5974 4422
L5993 4384
L6012 4365
L6049 4347
L6106 4347
L6143 4365
L6162 4384
L6181 4422
L6181 4572
" />
<path d="M5974 4215
L5974 3972
L6124 4103
L6124 4047
L6143 4009
L6162 3990
L6199 3972
L6293 3972
L6331 3990
L6349 4009
L6368 4047
L6368 4159
L6349 4197
L6331 4215
" />
<path d="M2024 2409
L1893 2222
" />
<path d="M1799 2409
L1799 2015
L1949 2015
L1987 2034
L2006 2053
L2024 2090
L2024 2147
L2006 2184
L1987 2203
L1949 2222
L1799 2222
" />
<path d="M2381 2015
L2193 2015
L2174 2203
L2193 2184
L2231 2165
L2324 2165
L2362 2184
L2381 2203
L2399 2240
L2399 2334
L2381 2372
L2362 2390
L2324 2409
L2231 2409
L2193 2390
L2174 2372
" />
</g>
<g style="fill:#C2C200; fill-opacity:0.0; 
stroke:#C2C200; stroke-width:39.3701; stroke-opacity:1; 
stroke-linecap:round; stroke-linejoin:round;">
<path d="M90 31
L8840 31
" />
<path d="M90 6531
L90 31
" />
<path d="M8840 6531
L90 6531
" />
<path d="M8840 31
L8840 6531
" />
</g> 
</svg>
